<svg width="631" height="236" viewBox="0 0 631 236" fill="none" xmlns="http://www.w3.org/2000/svg">
<path d="M245.392 113.796C245.392 111.032 244.59 109.025 242.984 107.776C241.468 106.438 239.372 105.77 236.697 105.77C234.913 105.77 233.129 105.993 231.346 106.438C229.651 106.884 228.18 107.553 226.931 108.445V154.866C226.039 155.134 224.612 155.401 222.65 155.669C220.777 155.936 218.815 156.07 216.764 156.07C214.802 156.07 213.018 155.936 211.413 155.669C209.897 155.401 208.603 154.866 207.533 154.064C206.463 153.261 205.616 152.191 204.991 150.853C204.456 149.426 204.189 147.598 204.189 145.368V105.234C204.189 102.826 204.679 100.864 205.66 99.3482C206.73 97.832 208.157 96.4497 209.941 95.2011C212.973 93.0606 216.764 91.3215 221.312 89.9837C225.95 88.6459 231.078 87.977 236.697 87.977C246.775 87.977 254.534 90.2067 259.974 94.666C265.415 99.036 268.135 105.145 268.135 112.994V154.866C267.243 155.134 265.816 155.401 263.854 155.669C261.981 155.936 260.019 156.07 257.968 156.07C256.005 156.07 254.222 155.936 252.616 155.669C251.1 155.401 249.807 154.866 248.737 154.064C247.667 153.261 246.819 152.191 246.195 150.853C245.66 149.426 245.392 147.598 245.392 145.368V113.796ZM304.925 132.659C304.925 134.978 305.638 136.628 307.065 137.609C308.581 138.59 310.677 139.08 313.353 139.08C314.691 139.08 316.073 138.991 317.5 138.813C318.927 138.545 320.176 138.233 321.246 137.876C322.048 138.857 322.717 139.972 323.252 141.221C323.877 142.38 324.189 143.807 324.189 145.502C324.189 148.891 322.896 151.656 320.309 153.796C317.812 155.936 313.353 157.007 306.931 157.007C299.083 157.007 293.019 155.223 288.738 151.656C284.546 148.088 282.45 142.291 282.45 134.264V77.0072C283.431 76.7397 284.813 76.4721 286.597 76.2045C288.47 75.8478 290.432 75.6694 292.483 75.6694C296.408 75.6694 299.44 76.3829 301.58 77.8099C303.81 79.1477 304.925 82.0462 304.925 86.5055V95.0673H322.45C322.985 96.0483 323.475 97.2969 323.921 98.8131C324.456 100.24 324.724 101.845 324.724 103.629C324.724 106.751 324.011 109.025 322.584 110.452C321.246 111.79 319.417 112.458 317.099 112.458H304.925V132.659ZM390.595 135.602C390.595 142.38 388.053 147.687 382.97 151.522C377.886 155.357 370.395 157.274 360.495 157.274C356.749 157.274 353.271 157.007 350.06 156.472C346.85 155.936 344.085 155.134 341.766 154.064C339.536 152.904 337.753 151.477 336.415 149.783C335.166 148.088 334.542 146.081 334.542 143.763C334.542 141.622 334.988 139.838 335.88 138.411C336.772 136.895 337.842 135.647 339.091 134.666C341.677 136.093 344.62 137.386 347.92 138.545C351.309 139.615 355.189 140.151 359.559 140.151C362.323 140.151 364.419 139.749 365.846 138.947C367.362 138.144 368.12 137.074 368.12 135.736C368.12 134.487 367.585 133.506 366.515 132.793C365.445 132.079 363.661 131.5 361.164 131.054L357.151 130.251C349.391 128.735 343.594 126.371 339.759 123.161C336.014 119.861 334.141 115.179 334.141 109.114C334.141 105.814 334.854 102.826 336.281 100.151C337.708 97.4753 339.715 95.2457 342.301 93.462C344.888 91.6782 347.965 90.2959 351.532 89.3148C355.189 88.3338 359.202 87.8433 363.572 87.8433C366.872 87.8433 369.949 88.1108 372.803 88.6459C375.746 89.0919 378.288 89.8053 380.428 90.7864C382.569 91.7674 384.263 93.0606 385.512 94.666C386.76 96.1821 387.385 98.0104 387.385 100.151C387.385 102.202 386.983 103.986 386.181 105.502C385.467 106.929 384.531 108.133 383.371 109.114C382.658 108.668 381.587 108.222 380.161 107.776C378.734 107.241 377.173 106.795 375.478 106.438C373.784 105.993 372.045 105.636 370.261 105.368C368.566 105.101 367.006 104.967 365.579 104.967C362.636 104.967 360.361 105.324 358.756 106.037C357.151 106.661 356.348 107.687 356.348 109.114C356.348 110.095 356.794 110.898 357.686 111.522C358.578 112.146 360.272 112.726 362.769 113.261L366.916 114.198C375.478 116.16 381.543 118.88 385.11 122.358C388.767 125.747 390.595 130.162 390.595 135.602ZM465.804 154.866C464.912 155.134 463.485 155.401 461.523 155.669C459.65 155.936 457.688 156.07 455.637 156.07C453.675 156.07 451.891 155.936 450.285 155.669C448.769 155.401 447.476 154.866 446.406 154.064C445.336 153.261 444.488 152.191 443.864 150.853C443.329 149.426 443.061 147.598 443.061 145.368V115.669C443.061 112.013 442.125 109.471 440.252 108.044C438.468 106.528 436.239 105.77 433.563 105.77C431.779 105.77 430.085 105.993 428.48 106.438C426.874 106.884 425.581 107.419 424.6 108.044V154.866C423.708 155.134 422.281 155.401 420.319 155.669C418.446 155.936 416.484 156.07 414.433 156.07C412.471 156.07 410.687 155.936 409.082 155.669C407.566 155.401 406.272 154.866 405.202 154.064C404.132 153.261 403.285 152.191 402.66 150.853C402.125 149.426 401.858 147.598 401.858 145.368V67.7765C402.839 67.5981 404.266 67.3752 406.139 67.1076C408.101 66.7509 410.063 66.5725 412.025 66.5725C413.987 66.5725 415.726 66.7063 417.242 66.9738C418.848 67.2414 420.185 67.7765 421.256 68.5792C422.326 69.3818 423.128 70.4967 423.664 71.9236C424.288 73.2614 424.6 75.0451 424.6 77.2748V90.385C425.759 89.9391 427.499 89.4486 429.817 88.9135C432.225 88.2892 434.856 87.977 437.71 87.977C446.54 87.977 453.407 90.2067 458.312 94.666C463.307 99.036 465.804 105.591 465.804 114.331V154.866ZM547.136 122.492C547.136 128.021 546.288 132.971 544.594 137.341C542.899 141.622 540.491 145.234 537.37 148.177C534.338 151.12 530.681 153.35 526.4 154.866C522.119 156.382 517.348 157.14 512.086 157.14C506.824 157.14 502.052 156.338 497.772 154.732C493.491 153.127 489.789 150.853 486.668 147.91C483.636 144.877 481.272 141.221 479.578 136.94C477.883 132.659 477.036 127.843 477.036 122.492C477.036 117.23 477.883 112.458 479.578 108.178C481.272 103.897 483.636 100.285 486.668 97.3415C489.789 94.3092 493.491 91.9904 497.772 90.385C502.052 88.7797 506.824 87.977 512.086 87.977C517.348 87.977 522.119 88.8243 526.4 90.5188C530.681 92.1242 534.338 94.443 537.37 97.4753C540.491 100.418 542.899 104.03 544.594 108.311C546.288 112.592 547.136 117.319 547.136 122.492ZM500.313 122.492C500.313 127.932 501.339 132.124 503.39 135.067C505.531 137.921 508.474 139.348 512.22 139.348C515.965 139.348 518.819 137.876 520.781 134.933C522.833 131.99 523.858 127.843 523.858 122.492C523.858 117.141 522.833 113.038 520.781 110.184C518.73 107.241 515.832 105.77 512.086 105.77C508.34 105.77 505.442 107.241 503.39 110.184C501.339 113.038 500.313 117.141 500.313 122.492ZM558.499 67.9103C559.39 67.6427 560.817 67.3752 562.779 67.1076C564.742 66.7509 566.748 66.5725 568.8 66.5725C570.762 66.5725 572.501 66.7063 574.017 66.9738C575.622 67.2414 576.96 67.7765 578.03 68.5792C579.1 69.3818 579.903 70.4967 580.438 71.9236C580.973 73.2614 581.241 75.0451 581.241 77.2748V90.385C583.471 89.4932 585.566 88.8689 587.528 88.5122C589.58 88.1554 591.809 87.977 594.217 87.977C598.498 87.977 602.556 88.7351 606.391 90.2513C610.226 91.7674 613.615 93.9971 616.558 96.9402C619.502 99.7941 621.82 103.362 623.515 107.642C625.209 111.923 626.057 116.873 626.057 122.492C626.057 128.289 625.165 133.372 623.381 137.743C621.687 142.023 619.279 145.591 616.157 148.445C613.036 151.299 609.201 153.484 604.652 155C600.193 156.427 595.243 157.14 589.803 157.14C583.916 157.14 578.922 156.427 574.82 155C570.717 153.662 567.239 151.968 564.385 149.916C560.461 147.152 558.499 143.584 558.499 139.214V67.9103ZM589.803 139.214C593.905 139.214 597.071 137.832 599.301 135.067C601.62 132.213 602.779 128.021 602.779 122.492C602.779 116.873 601.62 112.681 599.301 109.917C596.982 107.152 593.861 105.77 589.936 105.77C588.153 105.77 586.592 105.948 585.254 106.305C584.006 106.661 582.623 107.197 581.107 107.91V137.074C582.088 137.698 583.248 138.233 584.585 138.679C586.012 139.036 587.751 139.214 589.803 139.214Z" fill="#237F61"/>
<path fill-rule="evenodd" clip-rule="evenodd" d="M2.02041 55.1803C-2.43077 49.9873 1.2589 41.9643 8.09891 41.9643H107.009C126.709 41.9643 142.679 57.9341 142.679 77.6339C142.679 97.3337 126.709 113.304 107.009 113.304H8.09891C1.25842 113.304 -2.43045 105.28 2.02041 100.088L8.00157 93.1096C15.6346 84.2044 15.6346 71.0635 8.00157 62.1583L2.02041 55.1803ZM0 156.9C0 137.2 15.9699 121.23 35.6696 121.23H134.58C141.42 121.23 145.109 129.253 140.658 134.446L134.677 141.424C127.044 150.329 127.044 163.47 134.677 172.376L140.658 179.353C145.109 184.546 141.42 192.569 134.58 192.569H35.6696C15.9699 192.569 0 176.6 0 156.9Z" fill="url(#paint0_linear_758_2)"/>
<defs>
<linearGradient id="paint0_linear_758_2" x1="3.43803" y1="38.1442" x2="150.701" y2="223.225" gradientUnits="userSpaceOnUse">
<stop offset="0.460765" stop-color="#237F61"/>
<stop offset="1" stop-color="#F0F0F0"/>
</linearGradient>
</defs>
</svg>
