<svg width="249" height="263" viewBox="0 0 249 263" fill="none" xmlns="http://www.w3.org/2000/svg">
<path fill-rule="evenodd" clip-rule="evenodd" d="M3.52598 23.0643C-4.24213 14.0015 2.19701 0 14.1341 0H186.75C221.13 0 249 27.8703 249 62.25C249 96.6297 221.13 124.5 186.75 124.5H14.1341C2.19618 124.5 -4.24158 110.498 3.52598 101.436L13.9642 89.2578C27.2853 73.7166 27.2853 50.7834 13.9642 35.2422L3.52598 23.0643ZM0 200.583C0 166.203 27.8703 138.333 62.25 138.333H234.866C246.803 138.333 253.241 152.335 245.474 161.398L235.035 173.575C221.715 189.117 221.715 212.05 235.035 227.592L245.474 239.769C253.241 248.831 246.803 262.833 234.866 262.833H62.25C27.8703 262.833 0 234.963 0 200.583Z" fill="url(#paint0_linear_734_7)"/>
<defs>
<linearGradient id="paint0_linear_734_7" x1="5.99999" y1="-6.66668" x2="263" y2="316.333" gradientUnits="userSpaceOnUse">
<stop offset="0.460765" stop-color="#237F61"/>
<stop offset="1" stop-color="#F0F0F0"/>
</linearGradient>
</defs>
</svg>
